<mxfile host="app.diagrams.net" modified="2023-08-01T00:08:14.002Z" agent="Mozilla/5.0 (Windows NT 10.0; Win64; x64) AppleWebKit/537.36 (KHTML, like Gecko) Chrome/115.0.0.0 Safari/537.36" etag="A3EYu7yVrqRbL9RybQZ_" version="21.6.5" type="device">
  <diagram name="페이지-1" id="7Ij8uKjP76WhhLE6ZRci">
    <mxGraphModel dx="1687" dy="2098" grid="1" gridSize="10" guides="1" tooltips="1" connect="1" arrows="1" fold="1" page="1" pageScale="1" pageWidth="827" pageHeight="1169" background="#FFFFFF" math="0" shadow="0">
      <root>
        <mxCell id="0" />
        <mxCell id="1" parent="0" />
        <mxCell id="FlCNs_IBPol1UIJCw7tp-71" value="" style="rounded=0;whiteSpace=wrap;html=1;strokeColor=#ffffff;" parent="1" vertex="1">
          <mxGeometry y="-1169" width="820" height="740" as="geometry" />
        </mxCell>
        <mxCell id="FlCNs_IBPol1UIJCw7tp-15" style="edgeStyle=orthogonalEdgeStyle;rounded=0;orthogonalLoop=1;jettySize=auto;html=1;entryX=0.5;entryY=0;entryDx=0;entryDy=0;strokeWidth=3;" parent="1" source="FlCNs_IBPol1UIJCw7tp-10" target="FlCNs_IBPol1UIJCw7tp-13" edge="1">
          <mxGeometry relative="1" as="geometry" />
        </mxCell>
        <mxCell id="FlCNs_IBPol1UIJCw7tp-10" value="Recv Packet" style="shape=parallelogram;perimeter=parallelogramPerimeter;whiteSpace=wrap;html=1;fixedSize=1;aspect=fixed;strokeWidth=2;fontStyle=1" parent="1" vertex="1">
          <mxGeometry x="290.03000000000003" y="-1120" width="124" height="91" as="geometry" />
        </mxCell>
        <mxCell id="FlCNs_IBPol1UIJCw7tp-58" value="CmdType_Tird_Info" style="edgeStyle=orthogonalEdgeStyle;rounded=0;orthogonalLoop=1;jettySize=auto;html=1;entryX=0.5;entryY=0;entryDx=0;entryDy=0;fontStyle=1;fontSize=12;strokeWidth=3;exitX=0.5;exitY=1;exitDx=0;exitDy=0;" parent="1" source="FlCNs_IBPol1UIJCw7tp-13" target="FlCNs_IBPol1UIJCw7tp-23" edge="1">
          <mxGeometry x="0.5015" relative="1" as="geometry">
            <Array as="points">
              <mxPoint x="352.03000000000003" y="-930" />
              <mxPoint x="350.03000000000003" y="-930" />
              <mxPoint x="350.03000000000003" y="-860" />
            </Array>
            <mxPoint as="offset" />
          </mxGeometry>
        </mxCell>
        <mxCell id="FlCNs_IBPol1UIJCw7tp-13" value="Cmd_Type&lt;br style=&quot;font-size: 14px;&quot;&gt;CHeck" style="rhombus;whiteSpace=wrap;html=1;aspect=fixed;strokeWidth=2;fontStyle=1;fontSize=14;" parent="1" vertex="1">
          <mxGeometry x="299.03000000000003" y="-980" width="105" height="100" as="geometry" />
        </mxCell>
        <mxCell id="FlCNs_IBPol1UIJCw7tp-21" value="Handle Update Pending Info" style="rounded=0;whiteSpace=wrap;html=1;fontStyle=1;strokeWidth=2;fontSize=14;" parent="1" vertex="1">
          <mxGeometry x="301.03000000000003" y="-560" width="103" height="76" as="geometry" />
        </mxCell>
        <mxCell id="FlCNs_IBPol1UIJCw7tp-57" style="edgeStyle=orthogonalEdgeStyle;rounded=0;orthogonalLoop=1;jettySize=auto;html=1;exitX=0.5;exitY=1;exitDx=0;exitDy=0;entryX=0.5;entryY=0;entryDx=0;entryDy=0;fontStyle=1;fontColor=#000000;fillColor=#e51400;strokeColor=#ff2600;strokeWidth=3;" parent="1" source="FlCNs_IBPol1UIJCw7tp-23" target="FlCNs_IBPol1UIJCw7tp-26" edge="1">
          <mxGeometry relative="1" as="geometry" />
        </mxCell>
        <mxCell id="FlCNs_IBPol1UIJCw7tp-23" value="Is Pair?" style="rhombus;whiteSpace=wrap;html=1;aspect=fixed;fontStyle=1;strokeWidth=2;fontSize=14;" parent="1" vertex="1">
          <mxGeometry x="298.03000000000003" y="-819" width="105" height="100" as="geometry" />
        </mxCell>
        <mxCell id="FlCNs_IBPol1UIJCw7tp-34" style="edgeStyle=orthogonalEdgeStyle;rounded=0;orthogonalLoop=1;jettySize=auto;html=1;exitX=0.5;exitY=1;exitDx=0;exitDy=0;entryX=0.5;entryY=0;entryDx=0;entryDy=0;fontStyle=1;strokeWidth=3;" parent="1" source="FlCNs_IBPol1UIJCw7tp-26" target="FlCNs_IBPol1UIJCw7tp-21" edge="1">
          <mxGeometry relative="1" as="geometry" />
        </mxCell>
        <mxCell id="FlCNs_IBPol1UIJCw7tp-26" value="Device Type&lt;br style=&quot;font-size: 14px;&quot;&gt;Is TIRD?" style="rhombus;whiteSpace=wrap;html=1;aspect=fixed;fontStyle=1;strokeWidth=2;fontSize=14;" parent="1" vertex="1">
          <mxGeometry x="299.03000000000003" y="-690" width="105" height="100" as="geometry" />
        </mxCell>
        <mxCell id="FlCNs_IBPol1UIJCw7tp-32" value="&lt;p style=&quot;margin: 0px; padding: 0px; border: 0px none; line-height: 0px; overflow-wrap: break-word; font-family: Arial; font-size: 14px;&quot;&gt;&lt;span style=&quot;font-size: 14px;&quot;&gt;&lt;/span&gt;&lt;/p&gt;&lt;p style=&quot;margin: 0px; padding: 0px; border: 0px none; line-height: 0px; overflow-wrap: break-word; font-family: Arial; font-size: 14px;&quot;&gt;&lt;span style=&quot;font-size: 14px;&quot;&gt;&lt;/span&gt;&lt;/p&gt;&lt;p style=&quot;margin: 0px; padding: 0px; border: 0px none; line-height: 0px; overflow-wrap: break-word; font-family: Arial; font-size: 14px;&quot;&gt;&lt;span style=&quot;font-size: 14px;&quot;&gt;Disconnected&lt;/span&gt;&lt;/p&gt;&lt;p style=&quot;margin: 0px; padding: 0px; border: 0px none; line-height: 0px; overflow-wrap: break-word; font-family: Arial; font-size: 14px;&quot;&gt;&lt;span style=&quot;font-size: 14px;&quot;&gt;&lt;br style=&quot;font-size: 14px;&quot;&gt;&lt;/span&gt;&lt;/p&gt;" style="rounded=0;whiteSpace=wrap;html=1;fontStyle=1;strokeWidth=2;fontSize=14;" parent="1" vertex="1">
          <mxGeometry x="431.03000000000003" y="-560" width="103" height="76" as="geometry" />
        </mxCell>
        <mxCell id="VzTFzCelFTvTFUtPNzLl-1" style="edgeStyle=orthogonalEdgeStyle;rounded=0;orthogonalLoop=1;jettySize=auto;html=1;exitX=0;exitY=0.5;exitDx=0;exitDy=0;entryX=1;entryY=0.5;entryDx=0;entryDy=0;fontStyle=1;strokeWidth=3;" parent="1" edge="1">
          <mxGeometry relative="1" as="geometry">
            <mxPoint x="670.03" y="-1140" as="sourcePoint" />
            <mxPoint x="620.03" y="-1140" as="targetPoint" />
          </mxGeometry>
        </mxCell>
        <mxCell id="VzTFzCelFTvTFUtPNzLl-2" style="edgeStyle=orthogonalEdgeStyle;rounded=0;orthogonalLoop=1;jettySize=auto;html=1;entryX=1;entryY=0.5;entryDx=0;entryDy=0;fontStyle=1;strokeWidth=3;strokeColor=#FC2821;" parent="1" edge="1">
          <mxGeometry relative="1" as="geometry">
            <mxPoint x="670.03" y="-1110" as="sourcePoint" />
            <mxPoint x="620.0300000000002" y="-1110" as="targetPoint" />
          </mxGeometry>
        </mxCell>
        <mxCell id="VzTFzCelFTvTFUtPNzLl-4" value="참" style="text;html=1;strokeColor=none;fillColor=none;align=center;verticalAlign=middle;whiteSpace=wrap;rounded=0;fontSize=20;fontStyle=1" parent="1" vertex="1">
          <mxGeometry x="670.03" y="-1154" width="60" height="30" as="geometry" />
        </mxCell>
        <mxCell id="VzTFzCelFTvTFUtPNzLl-5" value="거짓" style="text;html=1;strokeColor=none;fillColor=none;align=center;verticalAlign=middle;whiteSpace=wrap;rounded=0;fontSize=20;fontStyle=1" parent="1" vertex="1">
          <mxGeometry x="670.03" y="-1124" width="60" height="30" as="geometry" />
        </mxCell>
        <mxCell id="mwJyTNDDtB5qL9PiFzt8-1" style="edgeStyle=orthogonalEdgeStyle;rounded=0;orthogonalLoop=1;jettySize=auto;html=1;exitX=1;exitY=0.5;exitDx=0;exitDy=0;entryX=0.5;entryY=0;entryDx=0;entryDy=0;fontStyle=1;strokeWidth=3;strokeColor=#FC2821;" edge="1" parent="1" source="FlCNs_IBPol1UIJCw7tp-26" target="FlCNs_IBPol1UIJCw7tp-32">
          <mxGeometry relative="1" as="geometry">
            <mxPoint x="670.0300000000002" y="-660" as="sourcePoint" />
            <mxPoint x="470.03000000000026" y="-660" as="targetPoint" />
          </mxGeometry>
        </mxCell>
        <mxCell id="mwJyTNDDtB5qL9PiFzt8-2" style="edgeStyle=orthogonalEdgeStyle;rounded=0;orthogonalLoop=1;jettySize=auto;html=1;exitX=0;exitY=0.5;exitDx=0;exitDy=0;entryX=1;entryY=0.5;entryDx=0;entryDy=0;fontStyle=1;strokeWidth=3;" edge="1" parent="1" source="FlCNs_IBPol1UIJCw7tp-23" target="mwJyTNDDtB5qL9PiFzt8-3">
          <mxGeometry relative="1" as="geometry">
            <mxPoint x="180.03000000000003" y="-760" as="sourcePoint" />
            <mxPoint x="130.03" y="-760" as="targetPoint" />
            <Array as="points" />
          </mxGeometry>
        </mxCell>
        <mxCell id="mwJyTNDDtB5qL9PiFzt8-3" value="Handle&lt;br style=&quot;font-size: 14px;&quot;&gt;Pairing Info" style="rounded=0;whiteSpace=wrap;fontStyle=1;html=1;strokeWidth=2;fontSize=14;" vertex="1" parent="1">
          <mxGeometry x="109.53000000000023" y="-807" width="103" height="76" as="geometry" />
        </mxCell>
        <mxCell id="mwJyTNDDtB5qL9PiFzt8-4" value="Else" style="edgeStyle=orthogonalEdgeStyle;rounded=0;orthogonalLoop=1;jettySize=auto;html=1;exitX=1;exitY=0.5;exitDx=0;exitDy=0;entryX=0.5;entryY=0;entryDx=0;entryDy=0;fontStyle=1;strokeWidth=3;strokeColor=#FC2821;fontSize=12;" edge="1" parent="1" source="FlCNs_IBPol1UIJCw7tp-13" target="FlCNs_IBPol1UIJCw7tp-32">
          <mxGeometry x="-0.3377" relative="1" as="geometry">
            <mxPoint x="650.0300000000002" y="-890" as="sourcePoint" />
            <mxPoint x="450.03000000000026" y="-890" as="targetPoint" />
            <mxPoint as="offset" />
          </mxGeometry>
        </mxCell>
        <mxCell id="mwJyTNDDtB5qL9PiFzt8-8" style="edgeStyle=orthogonalEdgeStyle;rounded=0;orthogonalLoop=1;jettySize=auto;html=1;exitX=0.5;exitY=0;exitDx=0;exitDy=0;entryX=0.5;entryY=1;entryDx=0;entryDy=0;fontStyle=1;strokeWidth=3;" edge="1" parent="1" source="mwJyTNDDtB5qL9PiFzt8-3" target="mwJyTNDDtB5qL9PiFzt8-12">
          <mxGeometry relative="1" as="geometry">
            <mxPoint x="-119.97" y="-720" as="sourcePoint" />
            <mxPoint x="55.03" y="-769.0000000000002" as="targetPoint" />
          </mxGeometry>
        </mxCell>
        <mxCell id="mwJyTNDDtB5qL9PiFzt8-12" value="(TIM)&lt;br style=&quot;font-size: 14px;&quot;&gt;Update Pair &lt;br style=&quot;font-size: 14px;&quot;&gt;With Tird" style="rounded=0;whiteSpace=wrap;fontStyle=1;html=1;strokeWidth=2;fontSize=14;" vertex="1" parent="1">
          <mxGeometry x="109.53000000000023" y="-920" width="103" height="76" as="geometry" />
        </mxCell>
        <mxCell id="mwJyTNDDtB5qL9PiFzt8-19" value="Send Input Data To Target" style="rounded=0;whiteSpace=wrap;fontStyle=1;html=1;strokeWidth=2;fontSize=14;" vertex="1" parent="1">
          <mxGeometry x="109.53000000000023" y="-1040" width="103" height="76" as="geometry" />
        </mxCell>
        <mxCell id="mwJyTNDDtB5qL9PiFzt8-20" style="edgeStyle=orthogonalEdgeStyle;rounded=0;orthogonalLoop=1;jettySize=auto;html=1;exitX=0.5;exitY=0;exitDx=0;exitDy=0;fontStyle=1;strokeWidth=3;entryX=0.5;entryY=1;entryDx=0;entryDy=0;" edge="1" parent="1" source="mwJyTNDDtB5qL9PiFzt8-12" target="mwJyTNDDtB5qL9PiFzt8-19">
          <mxGeometry relative="1" as="geometry">
            <mxPoint x="-59.97" y="-770" as="sourcePoint" />
            <mxPoint x="-99.97" y="-770" as="targetPoint" />
          </mxGeometry>
        </mxCell>
        <mxCell id="mwJyTNDDtB5qL9PiFzt8-23" value="" style="ellipse;whiteSpace=wrap;html=1;strokeWidth=2;" vertex="1" parent="1">
          <mxGeometry x="143.03" y="-1107" width="30" height="30" as="geometry" />
        </mxCell>
        <mxCell id="mwJyTNDDtB5qL9PiFzt8-24" style="edgeStyle=orthogonalEdgeStyle;rounded=0;orthogonalLoop=1;jettySize=auto;html=1;exitX=0;exitY=0.5;exitDx=0;exitDy=0;fontStyle=1;strokeWidth=3;endArrow=none;endFill=0;entryX=0;entryY=0.5;entryDx=0;entryDy=0;" edge="1" parent="1" source="FlCNs_IBPol1UIJCw7tp-21" target="mwJyTNDDtB5qL9PiFzt8-23">
          <mxGeometry relative="1" as="geometry">
            <mxPoint x="-109.96999999999954" y="-640" as="sourcePoint" />
            <mxPoint x="-139.97" y="-640" as="targetPoint" />
            <Array as="points">
              <mxPoint x="20.03" y="-522" />
              <mxPoint x="20.03" y="-1092" />
            </Array>
          </mxGeometry>
        </mxCell>
        <mxCell id="mwJyTNDDtB5qL9PiFzt8-25" style="edgeStyle=orthogonalEdgeStyle;rounded=0;orthogonalLoop=1;jettySize=auto;html=1;fontStyle=1;strokeWidth=3;endArrow=none;endFill=0;entryX=0.5;entryY=1;entryDx=0;entryDy=0;" edge="1" parent="1" target="mwJyTNDDtB5qL9PiFzt8-23">
          <mxGeometry relative="1" as="geometry">
            <mxPoint x="158.03" y="-1040" as="sourcePoint" />
            <mxPoint x="90.03" y="-1050" as="targetPoint" />
            <Array as="points">
              <mxPoint x="158.03" y="-1050" />
              <mxPoint x="158.03" y="-1075" />
            </Array>
          </mxGeometry>
        </mxCell>
        <mxCell id="mwJyTNDDtB5qL9PiFzt8-26" style="edgeStyle=orthogonalEdgeStyle;rounded=0;orthogonalLoop=1;jettySize=auto;html=1;exitX=1;exitY=0.5;exitDx=0;exitDy=0;entryX=0;entryY=0.25;entryDx=0;entryDy=0;fontStyle=1;strokeWidth=3;" edge="1" parent="1" source="mwJyTNDDtB5qL9PiFzt8-23" target="FlCNs_IBPol1UIJCw7tp-10">
          <mxGeometry relative="1" as="geometry">
            <mxPoint x="240.03000000000003" y="-1100" as="sourcePoint" />
            <mxPoint x="190.03000000000003" y="-1100" as="targetPoint" />
          </mxGeometry>
        </mxCell>
      </root>
    </mxGraphModel>
  </diagram>
</mxfile>
